<svg xmlns="http://www.w3.org/2000/svg" viewBox="0 0 70 70"><title>2tone_light_mark_sq</title><path d="M34.4911,33.0562a1.9165,1.9165,0,0,1-1.1028-.8038L24.06,18.0577a1.9121,1.9121,0,0,0-1.0619-.7879V39.4024a2.9221,2.9221,0,0,1,1.3621.4222l9.1061,6.4016a2.9011,2.9011,0,0,0,1.0248.3643V33.0562Z" fill="#fff"/><path d="M21.9979,17.2343a1.92,1.92,0,0,0-1.1693.8353L0.3309,49.7513a1.9781,1.9781,0,0,0-.2662,1.5952,1.9055,1.9055,0,0,0,2.93,1.0819L21.16,39.9107a2.9417,2.9417,0,0,1,.8381-0.3961v-22.28Z" fill="#d1d1cf"/><path d="M69.6691,49.7513L49.1714,18.07a1.9166,1.9166,0,0,0-1.1882-.8376V39.51a2.9411,2.9411,0,0,1,.857.4008L67.0059,52.4284a1.9054,1.9054,0,0,0,2.9294-1.0819A1.9778,1.9778,0,0,0,69.6691,49.7513Z" fill="#fff"/><path d="M46.9832,17.2769a1.9111,1.9111,0,0,0-1.043.7808L36.6117,32.2524a1.9182,1.9182,0,0,1-1.1207.8105v13.53a2.9006,2.9006,0,0,0,1.0428-.3668L45.64,39.8245a2.9235,2.9235,0,0,1,1.3432-.4214V17.2769Z" fill="#d1d1cf"/></svg>